<svg viewBox="0 0 18 18" xmlns="http://www.w3.org/2000/svg"><path d="M9 17c.884 0 1.726-.134 2.526-.403a8.005 8.005 0 0 0 3.933-2.871c.49-.667.869-1.4 1.138-2.2.269-.8.403-1.642.403-2.526 0-.884-.134-1.726-.403-2.526a8.005 8.005 0 0 0-2.871-3.933 8.005 8.005 0 0 0-2.2-1.138A7.873 7.873 0 0 0 9 1c-.884 0-1.726.134-2.526.403a8.005 8.005 0 0 0-3.933 2.871c-.49.667-.869 1.4-1.138 2.2A7.873 7.873 0 0 0 1 9c0 .884.134 1.726.403 2.526a8.005 8.005 0 0 0 2.871 3.933c.667.49 1.4.869 2.2 1.138.8.269 1.642.403 2.526.403Zm0-.965c-.779 0-1.52-.118-2.222-.355a7.042 7.042 0 0 1-1.934-1.002 7.113 7.113 0 0 1-1.526-1.526A6.931 6.931 0 0 1 1.965 9a6.944 6.944 0 0 1 1.353-4.156 7.113 7.113 0 0 1 1.526-1.526A6.944 6.944 0 0 1 9 1.965a6.944 6.944 0 0 1 4.156 1.353c.586.431 1.095.94 1.526 1.526A6.944 6.944 0 0 1 16.035 9a6.931 6.931 0 0 1-1.353 4.152 7.113 7.113 0 0 1-1.526 1.526 7.042 7.042 0 0 1-1.934 1.002A6.907 6.907 0 0 1 9 16.035Zm.557-3.31L13.283 9 9.557 5.274l-.64.64 2.636 2.629H4.726v.914h6.827l-2.636 2.637.64.632Z" fill="#000" fill-rule="nonzero"/></svg>