<svg viewBox="0 0 18 18" xmlns="http://www.w3.org/2000/svg" xmlns:xlink="http://www.w3.org/1999/xlink"><defs><path d="M9 17c.884 0 1.726-.134 2.526-.403a8.005 8.005 0 0 0 3.933-2.871c.49-.667.869-1.4 1.138-2.2.269-.8.403-1.642.403-2.526 0-.884-.134-1.726-.403-2.526a8.005 8.005 0 0 0-2.871-3.933 8.005 8.005 0 0 0-2.2-1.138A7.873 7.873 0 0 0 9 1c-.884 0-1.726.134-2.526.403a8.005 8.005 0 0 0-3.933 2.871c-.49.667-.869 1.4-1.138 2.2A7.873 7.873 0 0 0 1 9c0 .884.134 1.726.403 2.526a8.005 8.005 0 0 0 2.871 3.933c.667.49 1.4.869 2.2 1.138.8.269 1.642.403 2.526.403Zm0-1.04c-.77 0-1.504-.117-2.2-.35a6.994 6.994 0 0 1-3.424-2.5 6.994 6.994 0 0 1-.99-1.915A6.835 6.835 0 0 1 2.037 9c0-.77.116-1.504.35-2.2a6.962 6.962 0 0 1 .99-1.912 7.021 7.021 0 0 1 1.51-1.51A6.885 6.885 0 0 1 9 2.04a6.866 6.866 0 0 1 4.11 1.34c.58.426 1.085.93 1.512 1.509A6.887 6.887 0 0 1 15.96 9a6.872 6.872 0 0 1-1.338 4.11 7 7 0 0 1-3.424 2.5A6.829 6.829 0 0 1 9 15.96Z" id="a"/></defs><g fill-rule="nonzero" fill="#000"><use xlink:href="#a"/><use xlink:href="#a"/></g></svg>